<svg xmlns="http://www.w3.org/2000/svg" xmlns:xlink="http://www.w3.org/1999/xlink" width="328" height="255"><source><![CDATA[Producer->Filter: (range 1 5)
Note right of Filter: * 2
Filter-->Consumer: [2 4 6 8]]]></source><desc>Created with Raphaël 2.1.2</desc><defs><path id="raphael-marker-block" stroke-linecap="round" d="M5,0 0,2.5 5,5z"/><marker id="raphael-marker-endblock55-obj4845" markerHeight="5" markerWidth="5" orient="auto" refX="2.5" refY="2.5"><use fill="#000" stroke="none" stroke-width="1" transform="rotate(180 2.5 2.5) scale(1,1)" xlink:href="#raphael-marker-block"/></marker><marker id="raphael-marker-endblock55-obj4851" markerHeight="5" markerWidth="5" orient="auto" refX="2.5" refY="2.5"><use fill="#000" stroke="none" stroke-width="1" transform="rotate(180 2.5 2.5) scale(1,1)" xlink:href="#raphael-marker-block"/></marker></defs><rect width="84" height="37" x="10" y="20" fill="none" stroke="#000" stroke-width="2" rx="0" ry="0"/><rect width="64" height="17" x="20" y="30" fill="#fff" stroke="none" rx="0" ry="0"/><text x="52" y="38.5" fill="#000" stroke="none" font-family="Andale Mono, monospace" font-size="16" text-anchor="middle" style="text-anchor:middle;font-family:Andale Mono,monospace;font-size:16px"><tspan dy="6.5">Producer</tspan></text><rect width="84" height="37" x="10" y="198" fill="none" stroke="#000" stroke-width="2" rx="0" ry="0"/><rect width="64" height="17" x="20" y="208" fill="#fff" stroke="none" rx="0" ry="0"/><text x="52" y="216.5" fill="#000" stroke="none" font-family="Andale Mono, monospace" font-size="16" text-anchor="middle" style="text-anchor:middle;font-family:Andale Mono,monospace;font-size:16px"><tspan dy="6.5">Producer</tspan></text><path fill="none" stroke="#000" stroke-width="2" d="M52,57L52,198"/><rect width="68" height="37" x="126" y="20" fill="none" stroke="#000" stroke-width="2" rx="0" ry="0"/><rect width="48" height="17" x="136" y="30" fill="#fff" stroke="none" rx="0" ry="0"/><text x="160" y="38.5" fill="#000" stroke="none" font-family="Andale Mono, monospace" font-size="16" text-anchor="middle" style="text-anchor:middle;font-family:Andale Mono,monospace;font-size:16px"><tspan dy="6.5">Filter</tspan></text><rect width="68" height="37" x="126" y="198" fill="none" stroke="#000" stroke-width="2" rx="0" ry="0"/><rect width="48" height="17" x="136" y="208" fill="#fff" stroke="none" rx="0" ry="0"/><text x="160" y="216.5" fill="#000" stroke="none" font-family="Andale Mono, monospace" font-size="16" text-anchor="middle" style="text-anchor:middle;font-family:Andale Mono,monospace;font-size:16px"><tspan dy="6.5">Filter</tspan></text><path fill="none" stroke="#000" stroke-width="2" d="M160,57L160,198"/><rect width="84" height="37" x="214" y="20" fill="none" stroke="#000" stroke-width="2" rx="0" ry="0"/><rect width="64" height="17" x="224" y="30" fill="#fff" stroke="none" rx="0" ry="0"/><text x="256" y="38.5" fill="#000" stroke="none" font-family="Andale Mono, monospace" font-size="16" text-anchor="middle" style="text-anchor:middle;font-family:Andale Mono,monospace;font-size:16px"><tspan dy="6.5">Consumer</tspan></text><rect width="84" height="37" x="214" y="198" fill="none" stroke="#000" stroke-width="2" rx="0" ry="0"/><rect width="64" height="17" x="224" y="208" fill="#fff" stroke="none" rx="0" ry="0"/><text x="256" y="216.5" fill="#000" stroke="none" font-family="Andale Mono, monospace" font-size="16" text-anchor="middle" style="text-anchor:middle;font-family:Andale Mono,monospace;font-size:16px"><tspan dy="6.5">Consumer</tspan></text><path fill="none" stroke="#000" stroke-width="2" d="M256,57L256,198"/><rect width="88" height="17" x="62" y="73.5" fill="#fff" stroke="none" rx="0" ry="0"/><text x="106" y="82" fill="#000" stroke="none" font-family="Andale Mono, monospace" font-size="16" text-anchor="middle" style="text-anchor:middle;font-family:Andale Mono,monospace;font-size:16px"><tspan dy="6.5">(range 1 5)</tspan></text><path fill="none" stroke="#000" stroke-dasharray="0" stroke-width="2" marker-end="url(#raphael-marker-endblock55-obj4845)" d="M52,94C52,94,133.7672233581543,94,155.00753723829985,94"/><rect width="34" height="27" x="180" y="114" fill="none" stroke="#000" stroke-width="2" rx="0" ry="0"/><rect width="24" height="17" x="185" y="119" fill="#fff" stroke="none" rx="0" ry="0"/><text x="197" y="127.5" fill="#000" stroke="none" font-family="Andale Mono, monospace" font-size="16" text-anchor="middle" style="text-anchor:middle;font-family:Andale Mono,monospace;font-size:16px"><tspan dy="6.5">* 2</tspan></text><rect width="72" height="17" x="172" y="157.5" fill="#fff" stroke="none" rx="0" ry="0"/><text x="208" y="166" fill="#000" stroke="none" font-family="Andale Mono, monospace" font-size="16" text-anchor="middle" style="text-anchor:middle;font-family:Andale Mono,monospace;font-size:16px"><tspan dy="6.5">[2 4 6 8]</tspan></text><path fill="none" stroke="#000" stroke-dasharray="6 2" stroke-width="2" marker-end="url(#raphael-marker-endblock55-obj4851)" d="M160,178C160,178,231.30184173583984,178,251.00733119994402,178"/></svg>